<svg width="38" height="28" viewBox="0 0 38 28" fill="none" xmlns="http://www.w3.org/2000/svg">
<path d="M17.6427 2.05235L15.1621 0C5.82342 5.27749 1.4459 11.288 0.278563 18.0314C-0.596942 23.6021 1.59182 28 7.13668 28C11.0765 28 14.8703 25.3613 15.7458 20.9633C16.4754 15.8325 13.5571 12.7539 9.90911 12.0209C11.3683 7.03665 17.4968 2.05235 17.6427 2.05235ZM30.1916 11.7278C31.7967 6.89006 37.6334 2.05235 37.7794 2.05235L35.2988 0C25.96 5.27749 21.5825 11.288 20.4152 18.0314C19.5397 23.6021 21.7284 28 27.2733 28C31.2131 28 35.0069 25.3613 35.7365 20.9633C36.612 15.8325 33.8396 12.4607 30.1916 11.7278Z" fill="url(#paint0_linear)"/>
<defs>
<linearGradient id="paint0_linear" x1="37.7794" y1="-1.46069e-06" x2="-9.00136" y2="35.1726" gradientUnits="userSpaceOnUse">
<stop stop-color="#39C2FD"/>
<stop offset="0.0666667" stop-color="#39C2FD"/>
<stop offset="0.133333" stop-color="#39C0FD"/>
<stop offset="0.2" stop-color="#3ABEFD"/>
<stop offset="0.266667" stop-color="#3BBBFD"/>
<stop offset="0.333333" stop-color="#3CB7FD"/>
<stop offset="0.4" stop-color="#3EB2FE"/>
<stop offset="0.466667" stop-color="#3FACFE"/>
<stop offset="0.533333" stop-color="#41A7FE"/>
<stop offset="0.6" stop-color="#42A1FE"/>
<stop offset="0.666667" stop-color="#449CFF"/>
<stop offset="0.733333" stop-color="#4598FF"/>
<stop offset="0.8" stop-color="#4695FF"/>
<stop offset="0.866667" stop-color="#4792FF"/>
<stop offset="0.933333" stop-color="#4791FF"/>
<stop offset="1" stop-color="#4791FF"/>
</linearGradient>
</defs>
</svg>
