<svg width="37" height="28" viewBox="0 0 37 28" fill="none" xmlns="http://www.w3.org/2000/svg">
<path d="M15.5531 3.72542C16.181 3.12406 16.1892 0.964421 15.5201 0.409236C15.2232 0.162901 14.8023 0.126404 14.469 0.320544C5.54017 5.52048 1.3267 11.4241 0.186228 18.0314C-0.686754 23.6021 1.4957 28 7.02459 28C10.953 28 14.7359 25.3613 15.6089 20.9633C16.0969 17.5216 14.9482 15.0033 13.0411 13.497C11.5196 12.2953 10.2855 10.4103 11.3207 8.77093C12.5863 6.7668 14.2646 4.95946 15.5531 3.72542ZM33.2177 13.2737C31.7663 12.0286 30.5745 10.122 31.6195 8.52051C32.8529 6.63048 34.4241 4.92457 35.644 3.73979C36.2677 3.13404 36.2678 0.964422 35.5987 0.409237C35.3018 0.162901 34.8809 0.126404 34.5475 0.320544C25.6187 5.52048 21.4053 11.4241 20.2648 18.0314C19.3918 23.6021 21.5743 28 27.1032 28C31.0316 28 34.8145 25.3613 35.542 20.9633C36.1281 17.5183 35.0745 14.8663 33.2177 13.2737Z" fill="url(#paint0_linear)"/>
<defs>
<linearGradient id="paint0_linear" x1="0.682757" y1="14" x2="37.5789" y2="14.0393" gradientUnits="userSpaceOnUse">
<stop stop-color="#FF3565"/>
<stop offset="1" stop-color="#FF3596"/>
<stop offset="1" stop-color="#FF3596"/>
</linearGradient>
</defs>
</svg>
